<svg width="170" height="169" viewBox="0 0 170 169" fill="none" xmlns="http://www.w3.org/2000/svg">
<rect width="170" height="169" fill="#000000"/>
<path d="M25.9077 84.5718C25.9077 116.886 52.3315 143.06 84.9828 143.06C93.7219 143.06 102.014 141.105 109.48 137.743V165.186C101.739 167.485 93.5155 168.754 84.9828 168.754C38.053 168.754 0 131.088 0 84.5718C0 38.0553 38.053 0.389404 85.0172 0.389404C93.5499 0.389404 101.739 1.65866 109.514 3.95703V31.4003C102.048 28.0042 93.7563 26.0832 85.0172 26.0832C52.4003 26.0832 25.9421 52.2573 25.9421 84.5718H25.9077ZM84.9828 120.214C65.0961 120.214 48.9597 104.262 48.9597 84.5375C48.9597 64.8126 65.0961 48.8611 84.9828 48.8611C104.869 48.8611 121.006 64.8469 121.006 84.5375C121.006 104.228 104.869 120.214 84.9828 120.214ZM162.018 120.214H131.741C139.413 110.334 144.058 98.019 144.058 84.5718C144.058 71.1245 139.413 58.775 131.706 48.8955H161.983C167.11 59.7356 170 71.8106 170 84.5718C170 97.3329 167.11 109.408 161.983 120.214" fill="#FF6600"/>
</svg>
